<?xml version="1.0" encoding="UTF-8"?>
<svg width="32" height="32" viewBox="0 0 32 32" fill="none" xmlns="http://www.w3.org/2000/svg">
  <!-- Background circle -->
  <circle cx="16" cy="16" r="16" fill="#4F46E5"/>
  
  <!-- Stylized @ symbol -->
  <path d="M20 16c0 2.21-1.79 4-4 4s-4-1.79-4-4 1.79-4 4-4 4 1.79 4 4z" fill="white"/>
  <path d="M16 22c-3.31 0-6-2.69-6-6s2.69-6 6-6c1.66 0 3.14.69 4.22 1.78l1.41-1.41C20.27 9.01 18.24 8 16 8c-4.41 0-8 3.59-8 8s3.59 8 8 8c4.41 0 8-3.59 8-8h-2c0 3.31-2.69 6-6 6z" fill="white"/>
  
  <!-- Pen stroke -->
  <path d="M24 8l-2.5 2.5c-.3.3-.3.77 0 1.06l1.94 1.94c.3.3.77.3 1.06 0l2.5-2.5-3-3z" fill="white"/>
</svg>
