<?xml version="1.0" encoding="UTF-8"?>
<svg width="1200" height="630" viewBox="0 0 1200 630" fill="none" xmlns="http://www.w3.org/2000/svg">
  <!-- Background -->
  <rect width="1200" height="630" fill="#4F46E5"/>
  
  <!-- Decorative pattern -->
  <path d="M0 0L1200 630M1200 0L0 630" stroke="rgba(255,255,255,0.1)" stroke-width="2"/>
  
  <!-- Main icon (larger version of favicon) -->
  <g transform="translate(200,165) scale(4)">
    <circle cx="16" cy="16" r="16" fill="white"/>
    <path d="M20 16c0 2.21-1.79 4-4 4s-4-1.79-4-4 1.79-4 4-4 4 1.79 4 4z" fill="#4F46E5"/>
    <path d="M16 22c-3.31 0-6-2.69-6-6s2.69-6 6-6c1.66 0 3.14.69 4.22 1.78l1.41-1.41C20.27 9.01 18.24 8 16 8c-4.41 0-8 3.59-8 8s3.59 8 8 8c4.41 0 8-3.59 8-8h-2c0 3.31-2.69 6-6 6z" fill="#4F46E5"/>
    <path d="M24 8l-2.5 2.5c-.3.3-.3.77 0 1.06l1.94 1.94c.3.3.77.3 1.06 0l2.5-2.5-3-3z" fill="#4F46E5"/>
  </g>
  
  <!-- Text -->
  <text x="450" y="250" font-family="system-ui, -apple-system, sans-serif" font-size="72" font-weight="bold" fill="white">Email Signature</text>
  <text x="450" y="350" font-family="system-ui, -apple-system, sans-serif" font-size="72" font-weight="bold" fill="white">Generator</text>
  
  <!-- Tagline -->
  <text x="450" y="450" font-family="system-ui, -apple-system, sans-serif" font-size="32" fill="rgba(255,255,255,0.9)">Create professional email signatures in seconds</text>
</svg>
